<?xml version="1.0" encoding="UTF-8" standalone="no"?>
<svg width="22px" height="22px" viewBox="0 0 22 22" version="1.1" xmlns="http://www.w3.org/2000/svg" xmlns:xlink="http://www.w3.org/1999/xlink" xmlns:sketch="http://www.bohemiancoding.com/sketch/ns">
    <!-- Generator: Sketch 3.4.4 (17249) - http://www.bohemiancoding.com/sketch -->
    <title>Shape</title>
    <desc>Created with Sketch.</desc>
    <defs></defs>
    <g id="Page-1" stroke="none" stroke-width="1" fill="none" fill-rule="evenodd" sketch:type="MSPage">
        <path d="M6,19 C6,19.8333333 5.70833333,20.5416667 5.125,21.125 C4.54166667,21.7083333 3.83333333,22 3,22 C2.16666667,22 1.45833333,21.7083333 0.875,21.125 C0.291666667,20.5416667 -3.33066907e-16,19.8333333 -3.33066907e-16,19 C-3.33066907e-16,18.1666667 0.291666667,17.4583333 0.875,16.875 C1.45833333,16.2916667 2.16666667,16 3,16 C3.83333333,16 4.54166667,16.2916667 5.125,16.875 C5.70833333,17.4583333 6,18.1666667 6,19 L6,19 Z M14,20.922 C14.0206667,21.214 13.932,21.464 13.734,21.672 C13.5466667,21.8906667 13.302,22 13,22 L10.891,22 C10.6303333,22 10.4063333,21.914 10.219,21.742 C10.0316667,21.57 9.92733333,21.354 9.906,21.094 C9.67666667,18.7086667 8.71566667,16.6696667 7.023,14.977 C5.33033333,13.2843333 3.29133333,12.3233333 0.906,12.094 C0.645333333,12.0733333 0.429333333,11.969 0.258,11.781 C0.0866666667,11.593 0.000666666667,11.369 -2.10942375e-15,11.109 L-2.10942375e-15,9 C-2.10942375e-15,8.698 0.109333333,8.45333333 0.328,8.266 C0.505333333,8.08866667 0.729333333,8 1,8 L1.078,8 C2.74466667,8.13533333 4.33833333,8.55466667 5.859,9.258 C7.37966667,9.96133333 8.72866667,10.9066667 9.906,12.094 C11.0933333,13.2713333 12.0386667,14.6203333 12.742,16.141 C13.4453333,17.6616667 13.8646667,19.2553333 14,20.922 L14,20.922 Z M22,20.953 C22.0206667,21.2343333 21.927,21.479 21.719,21.687 C21.5316667,21.8956667 21.292,22 21,22 L18.766,22 C18.4953333,22 18.2636667,21.909 18.071,21.727 C17.8783333,21.545 17.7766667,21.3236667 17.766,21.063 C17.6413333,18.8236667 17.1153333,16.696 16.188,14.68 C15.2606667,12.664 14.055,10.914 12.571,9.43 C11.087,7.946 9.337,6.74033333 7.321,5.813 C5.305,4.88566667 3.17733333,4.35433333 0.938,4.219 C0.677333333,4.20833333 0.456,4.10666667 0.274,3.914 C0.092,3.72133333 0.001,3.49466667 0.001,3.234 L0.001,1 C0.001,0.708 0.105333333,0.468333333 0.314,0.281 C0.501333333,0.0936666667 0.730666667,-3.55271368e-15 1.002,-3.55271368e-15 L1.049,-3.55271368e-15 C3.77833333,0.135333333 6.39033333,0.760333333 8.885,1.875 C11.3796667,2.98966667 13.5956667,4.521 15.533,6.469 C17.481,8.40633333 19.0123333,10.6223333 20.127,13.117 C21.2416667,15.6116667 21.8666667,18.2236667 22.002,20.953 L22,20.953 Z" id="Shape" fill="#444444" sketch:type="MSShapeGroup" transform="translate(11.001401, 11.000000) scale(-1, 1) translate(-11.001401, -11.000000) "></path>
    </g>
</svg>